
        <svg xmlns="http://www.w3.org/2000/svg" xmlns:xlink="http://www.w3.org/1999/xlink" version="1.1" width="3171.4285714285716" height="2322.2229641593476" viewBox="0 0 3171.4285714285716 2322.2229641593476">
			
			<g transform="scale(8.571428571428571) translate(10, 10)">
				<defs id="SvgjsDefs1331"><linearGradient id="SvgjsLinearGradient1336"><stop id="SvgjsStop1337" stop-color="#147d6c" offset="0"/><stop id="SvgjsStop1338" stop-color="#1effff" offset="1"/></linearGradient><linearGradient id="SvgjsLinearGradient1339"><stop id="SvgjsStop1340" stop-color="#147d6c" offset="0"/><stop id="SvgjsStop1341" stop-color="#1effff" offset="1"/></linearGradient></defs><g id="SvgjsG1332" featureKey="monogramFeature-0" transform="matrix(3.7095921548633752,0,0,3.7095921548633752,104.33226874230415,-105.94592873530547)" fill="#fff"><path d="M9.66 75.42 c7.98 0 19.32 -6.06 23.7 -10.26 c0.66 -0.6 1.44 -0.12 0.84 0.54 c-5.82 6.48 -16.5 11.28 -23.82 11.28 c-6.24 0 -10.2 -3.72 -10.2 -8.64 c0 -3.36 0.9 -10.68 10.26 -22.62 c9.06 -11.58 17.82 -17.16 23.88 -17.16 c2.28 0 3.6 1.26 3.6 3.36 s-2.34 3.18 -1.68 1.92 s0.9 -3.84 -1.8 -3.84 c-2.94 0 -12.54 4.2 -23.04 17.16 c-7.2 8.82 -10.02 15.72 -10.02 21.18 c0 4.44 4.56 7.08 8.28 7.08 z"/></g><g id="SvgjsG1333" featureKey="nameFeature-0" transform="matrix(1.7906475015589787,0,0,1.7906475015589787,-3.438042699223352,178.79873160061604)" fill="#fff"><path d="M24.4 35.72 c-2.44 3.04 -5.76 4.52 -9.64 4.52 c-1.12 0 -2.2 -0.16 -3.28 -0.44 c-1.24 -0.44 -2.44 -0.92 -3.52 -1.6 c-2.44 -1.72 -4.2 -3.56 -5.04 -6.56 c-0.04 0 -0.04 -0.04 -0.04 -0.08 c0 0 0 -0.04 -0.04 -0.08 l0 -0.08 c-0.04 0 -0.04 -0.04 -0.04 -0.08 c-0.08 -0.24 -0.16 -0.44 -0.2 -0.68 c0 0 -0.08 -0.2 -0.08 -0.24 l0 -0.04 l0 0 l0 -0.04 c-0.04 0 -0.04 -0.04 -0.04 -0.08 c-0.08 -0.28 -0.12 -0.56 -0.2 -0.8 c-0.24 -1.08 -0.36 -2.16 -0.36 -3.24 c0 -0.52 0.04 -1 0.04 -1.48 c0 -0.36 0.04 -0.68 0.12 -1.04 c0.28 -2.32 1.12 -4.52 2.52 -6.4 c0.04 -0.04 0.08 -0.12 0.12 -0.16 c1.24 -1.72 2.88 -3.12 4.72 -4.08 c0.08 -0.04 0.16 -0.08 0.2 -0.12 c1.04 -0.44 2.04 -0.76 3.16 -0.92 l-0.04 0 c0.2 0 0.4 -0.04 0.6 -0.04 c3.08 -0.32 6.32 0.48 8.84 2.28 c1.6 1.12 3.28 3.32 3.68 5.24 c-0.08 0.24 -0.56 0.04 -0.8 0.08 c-0.56 -0.12 -1.36 0.12 -1.8 -0.16 c0 -0.04 -0.04 -0.04 -0.04 -0.08 c-0.08 -0.16 -0.16 -0.32 -0.24 -0.52 l0 0.04 c-0.16 -0.28 -0.32 -0.52 -0.48 -0.76 c-1.68 -2.16 -3.88 -3.28 -6.52 -3.6 c-0.84 -0.08 -1.68 -0.08 -2.56 0.04 l0.04 0 c-2.88 0.44 -5.16 1.8 -6.84 4.16 c-1.16 1.84 -1.68 3.44 -1.96 5.64 c-0.12 1.2 0 2.4 0.16 3.6 l0 0.08 c0.2 1.24 0.48 2.48 1.04 3.64 c1.96 3.6 4.2 5.72 8.6 5.92 c3.76 0 7 -1.44 8.76 -4.96 c0.6 -0.4 1.68 -0.08 2.4 -0.16 c0.44 0.12 -0.12 1.08 -0.16 1.4 c-0.28 0.68 -0.64 1.32 -1.08 1.88 z M14.88 26.759999999999998 c-0.72 0.28 -1.24 -1.08 -1.88 -1.4 c-0.2 -0.76 1.12 -1.28 1.44 -1.96 c0.68 -0.24 1.2 1.04 1.76 1.4 c0.48 0.68 -1.04 1.32 -1.32 1.96 z M1.92 26.16 l0 0.04 l0 -0.04 z M48.53 33.12 c-0.76 0 -1.72 0.2 -2.36 0 c-0.04 -0.08 -0.04 -0.12 -0.08 -0.16 c-0.04 -0.16 -0.08 -0.28 -0.12 -0.44 c-0.72 -1.88 -1.28 -3.84 -2.12 -5.68 c-2.72 -0.04 -5.48 -0.04 -8.2 0 c-0.84 1.84 -1.4 3.8 -2.12 5.68 c-0.04 0.16 -0.08 0.28 -0.12 0.44 c-0.04 0.04 -0.04 0.08 -0.08 0.16 c-0.64 0.2 -1.6 0 -2.36 0 c-0.96 0.12 0.88 -3.08 0.92 -3.76 c2.16 -5.76 4.36 -11.6 6.52 -17.32 c0.84 -0.04 1.84 -0.04 2.68 0 c2.56 6.96 5.32 13.96 7.8 20.96 c0 0.16 -0.24 0.08 -0.36 0.12 z M39.730000000000004 16.12 c-1.16 2.84 -2.32 5.72 -3.4 8.6 c2.28 -0.04 4.52 -0.08 6.8 -0.08 c-1.08 -2.84 -2.2 -5.68 -3.4 -8.52 z M40.010000000000005 39.8 c-0.76 0.24 -1.28 -1.12 -1.88 -1.44 c-0.24 -0.76 1.04 -1.28 1.36 -1.92 c0.68 -0.48 1.32 1.08 1.92 1.36 c0.24 0.76 -1.08 1.32 -1.4 2 z M87.38 40.2 c-3.32 0.16 -6.84 -0.4 -9.56 -2.4 c-1.88 -1.32 -2.96 -3.4 -4.52 -5 c0 -0.04 -0.04 -0.04 -0.08 -0.08 l0.04 0 c-2.24 -2.24 -4.88 -4.08 -8.08 -4.6 c-1.4 0.12 -2.8 0.2 -4.2 0.2 c-1.04 0 -2.12 -0.04 -3.16 -0.12 c0.04 3.52 -0.04 7.08 0 10.6 c-0.08 0.28 0.12 0.88 -0.16 1 l-1 0 c-0.32 0 -0.68 -0.04 -1 -0.08 c-0.12 -0.04 -0.52 0.04 -0.48 -0.2 c0.24 -8.8 0 -17.68 0.12 -26.52 c0.04 -0.32 -0.2 -1.04 0.36 -0.92 c2.36 -0.04 4.76 -0.04 7.12 0.04 c4.84 -0.24 8.84 3.24 8.84 8.16 c0 2.44 -1.04 4.96 -3.08 6.44 c2.96 1.12 5.56 3.2 7.6 5.6 c0.92 1.08 1.76 2.24 2.92 3.12 c2.36 1.8 5.44 2.32 8.36 2.28 c1.84 -0.08 3.72 -0.08 5.48 -0.68 c0.08 0 0.2 -0.08 0.28 -0.12 c0.2 0.08 0.08 0.56 0.12 0.76 c0 0.4 0 0.84 -0.04 1.28 c0 0.08 0 0.16 -0.04 0.2 c-1.72 1 -3.92 0.88 -5.84 1.04 z M92.86 32.72 c-4.64 0 -9.32 0.08 -13.96 0 c-0.08 0 -0.24 0 -0.24 -0.12 c-0.16 -1.84 -0.04 -3.68 0 -5.52 c0 -4.88 -0.28 -9.76 -0.08 -14.6 c0.04 -0.08 0 -0.16 0.08 -0.2 c4.68 -0.2 9.6 -0.2 14.36 -0.2 c0.08 0 0.16 0.04 0.16 0.12 l0 0.04 c-0.08 0.72 0.24 1.8 -0.16 2.32 c-3.92 0.08 -7.88 0.04 -11.8 0.12 c0 2.24 -0.04 4.48 0.04 6.76 l0.76 0 c2.84 0.12 5.84 -0.16 8.6 0 c-0.24 0.64 0.4 2.52 -0.6 2.32 c-2.92 -0.04 -5.88 0 -8.84 0 c0.08 2.2 0.08 4.4 0.12 6.6 c3.96 -0.04 7.88 -0.08 11.84 -0.08 c0.08 0 0.16 0.04 0.16 0.12 c-0.2 0.56 0.24 2.32 -0.44 2.32 z M57.82 25.759999999999998 c3.6 -0.04 8.64 0.96 10.64 -2.88 c1.32 -2.84 0.28 -6.88 -2.8 -8.04 c-2.44 -0.8 -5.28 -0.4 -7.84 -0.4 c-0.04 3.8 0 7.56 0 11.32 z M90.42 21.56 c0.04 0 0.04 0.04 0.04 0.08 l0 -0.08 l-0.04 0 z M115.91 34.6 c-0.92 3.84 -4.44 5.68 -7.96 5.68 c-4 0 -7.96 -2.4 -8 -6.92 c0.92 -0.04 1.84 -0.04 2.8 0 c0.48 1.44 0.92 2.68 2.44 3.56 c0.88 0.48 1.92 0.72 2.96 0.72 c1.96 0 4 -0.84 4.92 -2.56 c1.56 -3.48 -0.6 -6.72 -4.2 -7.4 c-2.68 -0.68 -5.68 -1.08 -7.52 -3.36 c-0.88 -1 -1.36 -2.28 -1.48 -3.6 c-0.76 -5.32 3.36 -8.88 8.12 -8.88 c0.8 0 1.56 0.08 2.36 0.28 c2.96 0.56 5.88 3.64 5.68 6.64 c-0.96 0.08 -1.88 0.04 -2.84 0 c-0.56 -2.04 -1.8 -3.88 -4.24 -4.16 c-7.36 -1.24 -9.28 8.12 -2.04 9.8 c1.2 0.36 2.44 0.56 3.6 0.92 c4.2 0.88 6.48 5.24 5.4 9.28 z M104.39 23.52 l0 0 z M113.23 35.24 l0 -0.08 c0 0.04 -0.04 0.08 -0.04 0.08 l0.04 0 z M132.08 39.96 c-0.84 0.04 -2.04 0.16 -2.76 -0.08 c0 -0.36 0 -0.68 0.04 -1 c0 -1.8 0 -3.6 0.08 -5.4 l0 -6.92 c-2.88 -4.68 -5.56 -9.44 -8.24 -14.24 c0.04 -0.44 0.96 -0.2 1.32 -0.28 c0.36 0 0.76 0 1.12 0.04 c0.08 0.04 0.16 0.04 0.28 0.04 c0.32 0.24 0.48 0.64 0.64 0.92 c0.04 0.08 0.08 0.16 0.12 0.2 c1.84 3.44 3.8 6.8 5.76 10.2 c0.04 0.08 0.08 0.12 0.08 0.12 c0.04 0.04 0.08 0.12 0.08 0.16 c0.04 -0.04 0.08 -0.12 0.08 -0.16 c0.04 0 0.04 -0.04 0.04 -0.08 c2 -3.44 3.96 -6.8 5.8 -10.2 c0.04 -0.12 0.08 -0.16 0.12 -0.2 c0.2 -0.32 0.32 -0.72 0.6 -0.96 l0.08 0 l0.24 -0.04 c0.36 -0.04 0.76 -0.04 1.12 -0.04 c0.36 0.08 1.32 -0.16 1.32 0.28 c-2.6 4.64 -5.16 9.28 -7.92 13.8 c0.04 1.36 0 2.72 -0.08 4.04 c-0.08 3.28 0.24 6.56 0.08 9.8 z M147.89000000000001 40.08 c-0.52 0.04 -1.08 0.04 -1.6 0.04 c0 0 -0.04 -0.04 -0.08 -0.04 c-0.12 -1.64 0.04 -3.36 0 -5 c-0.08 -2.28 -0.08 -4.6 -0.08 -6.88 l0 -2.52 c-0.08 -1.8 0.04 -3.6 0 -5.4 l0 0.04 c-0.04 -0.72 -0.04 -1.4 -0.04 -2.08 c0 -2 0.04 -4 0.16 -5.96 c0.76 -0.24 1.8 -0.16 2.64 -0.12 c1.08 1.48 1.96 3.16 3.04 4.68 c1.44 2.12 2.8 4.28 4.2 6.44 l1.52 2.36 c0.2 0.28 0.36 0.52 0.56 0.8 c0.92 1.4 1.76 2.88 2.72 4.28 c0.2 0.32 0.44 0.64 0.64 0.96 l0.6 0.96 c0.36 0.48 0.64 1 0.96 1.48 c0.08 -3.76 0.12 -7.52 0.12 -11.28 l0 -0.2 c-0.12 -2.84 -0.04 -5.72 -0.08 -8.56 c0.08 -0.68 -0.12 -1.44 0.04 -2.08 c0.28 -0.04 0.64 -0.04 0.92 -0.04 c0.52 0 1.08 -0.04 1.6 0 c0.04 0 0.04 0 0.08 0.04 c0.12 1.6 -0.04 3.32 0.04 5 c0.08 2.24 0.04 4.56 0.04 6.84 c0 0.84 0 1.68 0.04 2.52 c0.04 1.8 -0.04 3.6 0 5.4 c0 2.68 0 5.32 -0.12 8 c-0.76 0.28 -1.76 0.08 -2.56 0.16 c-0.08 0 -0.12 -0.04 -0.12 -0.12 c-3.16 -5.4 -6.4 -10.8 -9.84 -16.04 c-0.04 -0.04 -0.08 -0.12 -0.12 -0.16 c-1.48 -2.16 -2.88 -4.36 -4.28 -6.56 l-0.08 6.08 c-0.04 2.04 -0.04 4.08 0 6.08 l0 0.2 c0.08 2.88 0 5.72 0.04 8.6 c-0.16 1.08 0.68 2.32 -0.96 2.08 z M195.9 35.72 c-2.44 3.04 -5.76 4.52 -9.64 4.52 c-1.12 0 -2.2 -0.16 -3.28 -0.44 c-1.24 -0.44 -2.44 -0.92 -3.52 -1.6 c-2.44 -1.72 -4.2 -3.56 -5.04 -6.56 c-0.04 0 -0.04 -0.04 -0.04 -0.08 c0 0 0 -0.04 -0.04 -0.08 l0 -0.08 c-0.04 0 -0.04 -0.04 -0.04 -0.08 c-0.08 -0.24 -0.16 -0.44 -0.2 -0.68 c0 0 -0.08 -0.2 -0.08 -0.24 l0 -0.04 l0 0 l0 -0.04 c-0.04 0 -0.04 -0.04 -0.04 -0.08 c-0.08 -0.28 -0.12 -0.56 -0.2 -0.8 c-0.24 -1.08 -0.36 -2.16 -0.36 -3.24 c0 -0.52 0.04 -1 0.04 -1.48 c0 -0.36 0.04 -0.68 0.12 -1.04 c0.28 -2.32 1.12 -4.52 2.52 -6.4 c0.04 -0.04 0.08 -0.12 0.12 -0.16 c1.24 -1.72 2.88 -3.12 4.72 -4.08 c0.08 -0.04 0.16 -0.08 0.2 -0.12 c1.04 -0.44 2.04 -0.76 3.16 -0.92 l-0.04 0 c0.2 0 0.4 -0.04 0.6 -0.04 c3.08 -0.32 6.32 0.48 8.84 2.28 c1.6 1.12 3.28 3.32 3.68 5.24 c-0.08 0.24 -0.56 0.04 -0.8 0.08 c-0.56 -0.12 -1.36 0.12 -1.8 -0.16 c0 -0.04 -0.04 -0.04 -0.04 -0.08 c-0.08 -0.16 -0.16 -0.32 -0.24 -0.52 l0 0.04 c-0.16 -0.28 -0.32 -0.52 -0.48 -0.76 c-1.68 -2.16 -3.88 -3.28 -6.52 -3.6 c-0.84 -0.08 -1.68 -0.08 -2.56 0.04 l0.04 0 c-2.88 0.44 -5.16 1.8 -6.84 4.16 c-1.16 1.84 -1.68 3.44 -1.96 5.64 c-0.12 1.2 0 2.4 0.16 3.6 l0 0.08 c0.2 1.24 0.48 2.48 1.04 3.64 c1.96 3.6 4.2 5.72 8.6 5.92 c3.76 0 7 -1.44 8.76 -4.96 c0.6 -0.4 1.68 -0.08 2.4 -0.16 c0.44 0.12 -0.12 1.08 -0.16 1.4 c-0.28 0.68 -0.64 1.32 -1.08 1.88 z M186.38 26.759999999999998 c-0.72 0.28 -1.24 -1.08 -1.88 -1.4 c-0.2 -0.76 1.12 -1.28 1.44 -1.96 c0.68 -0.24 1.2 1.04 1.76 1.4 c0.48 0.68 -1.04 1.32 -1.32 1.96 z M173.42 26.16 l0 0.04 l0 -0.04 z"/></g>
			</g>
		</svg>
	